<svg width="60" height="60" viewBox="0 0 60 60" fill="none" xmlns="http://www.w3.org/2000/svg">
<rect width="60" height="60" rx="12" fill="#141414"/>
<path d="M22.2772 34.6908L22.2771 34.6909L22.2832 34.697L27.2932 39.707C27.6809 40.0946 28.3191 40.0946 28.7068 39.707C29.0944 39.3193 29.0944 38.681 28.7068 38.2934L23.6968 33.2834C23.3091 32.8958 22.6709 32.8958 22.2832 33.2834C22.0839 33.4828 21.99 33.7374 21.99 33.9902C21.99 34.2503 22.0989 34.4996 22.2772 34.6908Z" fill="#F7F7F7" stroke="#F7F7F7" stroke-width="0.5"/>
<path d="M27.01 22L27.01 39C27.01 39.5481 27.4619 40 28.01 40C28.5581 40 29.01 39.5481 29.01 39L29.01 22C29.01 21.4519 28.5581 21 28.01 21C27.4619 21 27.01 21.4519 27.01 22Z" fill="#F7F7F7" stroke="#F7F7F7" stroke-width="0.5"/>
<path d="M33.2832 21.2932C33.0839 21.4925 32.99 21.7472 32.99 21.9999C32.99 22.2552 33.0956 22.5191 33.2832 22.7067L38.2932 27.7167C38.6809 28.1043 39.3191 28.1043 39.7068 27.7167C40.0944 27.3291 40.0944 26.6908 39.7068 26.3032L34.6968 21.2932C34.3091 20.9055 33.6709 20.9055 33.2832 21.2932Z" fill="#F7F7F7" stroke="#F7F7F7" stroke-width="0.5"/>
<path d="M32.99 22L32.99 39C32.99 39.5481 33.4419 40 33.99 40C34.5381 40 34.99 39.5481 34.99 39L34.99 22C34.99 21.4519 34.5381 21 33.99 21C33.4419 21 32.99 21.4519 32.99 22Z" fill="#F7F7F7" stroke="#F7F7F7" stroke-width="0.5"/>
</svg>
