
<svg width="60" height="60" viewBox="0 0 60 60" fill="none" xmlns="http://www.w3.org/2000/svg">
<rect width="60" height="60" rx="12" fill="#141414"/>
<path d="M21.3287 38.6724C21.1382 38.4818 21.0231 38.2288 21.0047 37.96C20.9864 37.6911 21.066 37.4248 21.2288 37.2101L21.3287 37.0955L35.1882 23.236L25.1951 23.257C24.9128 23.259 24.6402 23.1539 24.4324 22.9628C24.2246 22.7717 24.097 22.5089 24.0754 22.2274C24.0538 21.9459 24.1397 21.6667 24.316 21.4461C24.4922 21.2255 24.7455 21.08 25.0248 21.0389L25.1899 21.0273L37.8825 21C38.1643 21 38.4357 21.1062 38.6426 21.2975L38.6741 21.3269L38.7046 21.3574C38.7194 21.3735 38.7338 21.3899 38.7477 21.4068L38.6741 21.3269C38.843 21.4965 38.9531 21.7157 38.9884 21.9524L38.9905 21.9671C38.997 22.0163 39.0001 22.0658 39 22.1154L38.9758 34.8112C38.9791 35.0952 38.8738 35.3698 38.6815 35.5789C38.4892 35.788 38.2243 35.9158 37.9409 35.9362C37.6576 35.9565 37.3771 35.868 37.1568 35.6886C36.9366 35.5093 36.793 35.2526 36.7556 34.971L36.7451 34.807L36.764 24.816L22.9066 38.6734C22.6975 38.8825 22.4139 39 22.1182 39C21.8224 39 21.5388 38.8825 21.3297 38.6734L21.3287 38.6724Z" fill="#F7F7F7"/>
</svg>
