<svg width="60" height="60" viewBox="0 0 60 60" fill="none" xmlns="http://www.w3.org/2000/svg">
<rect width="60" height="60" rx="12" fill="#141414"/>
<path d="M38.6713 21.3276C38.8618 21.5182 38.9769 21.7712 38.9953 22.0401C39.0136 22.3089 38.934 22.5752 38.7712 22.7899L38.6713 22.9045L24.8118 36.764L34.8049 36.743C35.0872 36.741 35.3598 36.8461 35.5676 37.0372C35.7754 37.2283 35.903 37.4911 35.9246 37.7726C35.9462 38.0541 35.8603 38.3333 35.684 38.5539C35.5078 38.7745 35.2545 38.92 34.9752 38.9611L34.8101 38.9727L22.1175 39C21.8357 39 21.5643 38.8938 21.3574 38.7025L21.3259 38.6731L21.2954 38.6426C21.2806 38.6265 21.2662 38.6101 21.2523 38.5932L21.3259 38.6731C21.157 38.5035 21.0469 38.2843 21.0116 38.0476L21.0095 38.0329C21.003 37.9837 20.9999 37.9342 21 37.8846L21.0242 25.1888C21.0209 24.9048 21.1262 24.6302 21.3185 24.4211C21.5108 24.212 21.7757 24.0842 22.0591 24.0638C22.3424 24.0435 22.6229 24.132 22.8432 24.3114C23.0634 24.4907 23.207 24.7474 23.2444 25.029L23.2549 25.193L23.236 35.184L37.0934 21.3266C37.3025 21.1175 37.5861 21 37.8818 21C38.1776 21 38.4612 21.1175 38.6703 21.3266L38.6713 21.3276Z" fill="#F7F7F7"/>
</svg>
