<svg width="60" height="60" viewBox="0 0 60 60" fill="none" xmlns="http://www.w3.org/2000/svg">
<rect width="60" height="60" rx="12" fill="#141414"/>
<path d="M35.1906 39.2227L35.1907 39.2228L35.1968 39.2167L40.2068 34.2067C40.5944 33.8191 40.5944 33.1808 40.2068 32.7932C39.8191 32.4055 39.1808 32.4055 38.7932 32.7932L33.7832 37.8032C33.3956 38.1908 33.3956 38.8291 33.7832 39.2167C33.9826 39.4161 34.2373 39.5099 34.49 39.5099C34.7501 39.5099 34.9995 39.4011 35.1906 39.2227Z" fill="#F7F7F7" stroke="#F7F7F7" stroke-width="0.5"/>
<path d="M22.5 34.4902H39.5C40.0481 34.4902 40.5 34.0383 40.5 33.4902C40.5 32.9422 40.0481 32.4902 39.5 32.4902H22.5C21.9519 32.4902 21.5 32.9422 21.5 33.4902C21.5 34.0383 21.9519 34.4902 22.5 34.4902Z" fill="#F7F7F7" stroke="#F7F7F7" stroke-width="0.5"/>
<path d="M21.7932 28.2167C21.9926 28.4161 22.2473 28.5099 22.5 28.5099C22.7553 28.5099 23.0192 28.4043 23.2068 28.2167L28.2168 23.2067C28.6044 22.8191 28.6044 22.1808 28.2168 21.7932C27.8291 21.4055 27.1909 21.4055 26.8032 21.7932L21.7932 26.8032C21.4056 27.1908 21.4056 27.8291 21.7932 28.2167Z" fill="#F7F7F7" stroke="#F7F7F7" stroke-width="0.5"/>
<path d="M22.5 28.5098H39.5C40.0481 28.5098 40.5 28.0578 40.5 27.5098C40.5 26.9617 40.0481 26.5098 39.5 26.5098H22.5C21.9519 26.5098 21.5 26.9617 21.5 27.5098C21.5 28.0578 21.9519 28.5098 22.5 28.5098Z" fill="#F7F7F7" stroke="#F7F7F7" stroke-width="0.5"/>
</svg>
